<svg xmlns="http://www.w3.org/2000/svg" width="1200" height="800" viewBox="0 0 1200 800" role="img" aria-label="Hero poster placeholder">
  <defs>
    <linearGradient id="g1" x1="0" y1="0" x2="1" y2="1">
      <stop offset="0%" stop-color="#1f1140"/>
      <stop offset="100%" stop-color="#0b1020"/>
    </linearGradient>
    <radialGradient id="g2" cx="80%" cy="0%" r="60%">
      <stop offset="0%" stop-color="rgba(124,58,237,0.45)"/>
      <stop offset="100%" stop-color="rgba(124,58,237,0)"/>
    </radialGradient>
    <radialGradient id="g3" cx="0%" cy="0%" r="55%">
      <stop offset="0%" stop-color="rgba(34,211,238,0.35)"/>
      <stop offset="100%" stop-color="rgba(34,211,238,0)"/>
    </radialGradient>
  </defs>
  <rect width="1200" height="800" fill="url(#g1)"/>
  <circle cx="980" cy="-40" r="360" fill="url(#g2)"/>
  <circle cx="-60" cy="-40" r="320" fill="url(#g3)"/>
  <g opacity="0.25" stroke="#7c3aed" stroke-width="1.5" fill="none">
    <path d="M60,640 C240,520 420,720 600,600 S960,560 1140,640"/>
    <path d="M60,680 C240,560 420,760 600,640 S960,600 1140,680"/>
  </g>
  <g opacity="0.25" stroke="#22d3ee" stroke-width="1.5" fill="none">
    <path d="M60,120 C280,220 420,100 600,200 S980,120 1140,160"/>
  </g>
  <g fill="#e5e7eb" opacity="0.9">
    <text x="60" y="700" font-family="Inter, system-ui, -apple-system, Segoe UI, Roboto, Helvetica, Arial" font-size="28" font-weight="600" fill="#cbd5e1">Hero Poster</text>
    <text x="60" y="736" font-family="Inter, system-ui, -apple-system, Segoe UI, Roboto, Helvetica, Arial" font-size="18" fill="#94a3b8">Responsive AVIF/WebP will be generated</text>
  </g>
</svg>
