<svg version="1.1" id="Layer_1" xmlns="http://www.w3.org/2000/svg" xmlns:xlink="http://www.w3.org/1999/xlink" x="0px" y="0px"
	 width="100%" viewBox="0 0 1024 1024" enable-background="new 0 0 1024 1024" xml:space="preserve">
<path fill="#000000" opacity="1.000000" stroke="none" 
	d="
M669.000000,1025.000000 
	C446.000000,1025.000000 223.500000,1025.000000 1.000000,1025.000000 
	C1.000000,683.666687 1.000000,342.333344 1.000000,1.000000 
	C342.333344,1.000000 683.666687,1.000000 1025.000000,1.000000 
	C1025.000000,342.333344 1025.000000,683.666687 1025.000000,1025.000000 
	C906.500000,1025.000000 788.000000,1025.000000 669.000000,1025.000000 
M554.516968,299.894470 
	C554.516968,299.894470 554.376892,299.633423 554.676147,298.877930 
	C554.021790,297.485626 553.688416,295.770264 552.662903,294.751617 
	C543.599731,285.749359 532.252991,282.153717 519.838989,282.147461 
	C512.296143,282.143646 504.518494,282.395447 497.275696,284.228760 
	C490.088135,286.048126 483.252655,289.642426 476.630096,293.151581 
	C473.201324,294.968414 470.393250,299.085388 472.543976,302.768188 
	C473.900177,305.090546 478.245667,305.762146 481.342010,306.931305 
	C482.793182,307.479279 484.461121,307.453217 486.030823,307.687286 
	C480.605591,309.134552 475.349701,309.628479 470.087433,310.040741 
	C461.045441,310.749054 451.999359,311.405304 442.955475,312.089691 
	C442.626068,312.114624 442.302826,312.213257 441.974670,312.264557 
	C431.772217,313.859375 421.570648,315.459747 411.366516,317.043854 
	C403.416687,318.277985 395.333588,318.953613 387.541992,320.837952 
	C375.241669,323.812744 363.085175,327.423615 350.960480,331.073151 
	C334.472839,336.035980 319.444397,343.983948 306.427979,355.229187 
	C300.235992,360.578644 294.264923,366.529846 291.262268,375.133240 
	C289.916382,376.981842 288.268921,378.683472 287.282806,380.707336 
	C284.622162,386.168152 281.862946,391.631439 279.839539,397.340637 
	C276.616486,406.434448 273.427948,415.602234 271.198517,424.970459 
	C268.573059,436.002899 267.018677,447.288666 264.903900,458.446381 
	C264.653320,459.768524 263.798798,460.976135 262.952515,462.832977 
	C261.156464,456.592468 257.659668,454.963074 252.073273,456.997406 
	C250.989090,457.392151 249.875946,457.725311 248.754303,457.996490 
	C238.288406,460.527191 230.808121,466.986572 223.949570,475.096954 
	C215.273819,485.356171 216.499283,498.001282 214.274323,509.715637 
	C212.681015,518.104431 213.068954,526.925293 213.093719,535.551880 
	C213.125702,546.677063 213.411041,557.816772 214.082657,568.920349 
	C214.718307,579.429199 215.781769,589.925842 217.083008,600.374817 
	C217.687012,605.224854 218.451660,610.377319 220.607712,614.654663 
	C228.967285,631.238647 241.649063,641.554321 261.397644,640.446106 
	C262.273712,640.396973 263.556061,640.807251 264.025116,641.455261 
	C266.109283,644.334656 268.695679,647.138977 269.769287,650.407715 
	C273.146088,660.688599 275.848785,671.188660 278.949005,681.563049 
	C284.867767,701.369568 295.254028,718.324463 311.483246,731.374268 
	C313.592712,733.070557 316.434448,733.856201 319.150970,735.709473 
	C319.602600,736.170776 319.987885,736.733643 320.515717,737.078308 
	C331.578278,744.302979 343.969971,748.237610 356.495056,752.020020 
	C362.947571,753.968506 369.046234,757.088745 375.304810,759.679504 
	C375.157135,760.114258 375.009430,760.549072 374.861755,760.983826 
	C373.421875,760.859070 371.865906,760.326965 370.567078,760.697144 
	C368.116302,761.395569 364.657135,761.958557 363.653442,763.731018 
	C359.730225,770.659119 359.408661,785.723633 366.401581,794.148193 
	C374.957458,804.455566 386.826752,806.210510 398.448456,808.868408 
	C405.659576,810.517578 413.090057,811.222168 420.432251,812.280029 
	C431.499756,813.874512 442.540436,815.777344 453.659882,816.851501 
	C462.897980,817.743835 472.239105,818.028809 481.524323,817.890625 
	C514.540649,817.399048 547.546326,818.929565 580.578186,815.379883 
	C599.971802,813.295837 619.218201,811.085632 638.272888,806.965881 
	C646.865051,805.108154 655.264404,802.484314 660.931396,795.667053 
	C668.665710,786.362610 670.094177,775.346863 665.534241,764.091309 
	C664.815552,762.317139 661.255676,761.388794 658.830261,760.708069 
	C656.899475,760.166199 654.695251,760.598816 652.612366,760.598816 
	C652.561218,760.173950 652.510010,759.749084 652.458801,759.324219 
	C654.953857,758.132874 657.353271,756.640869 659.963074,755.810059 
	C666.233948,753.814087 672.743958,752.507141 678.898743,750.224487 
	C687.185608,747.151184 695.533508,743.991089 703.302795,739.835388 
	C713.760925,734.241577 723.843872,728.074890 731.115845,718.023376 
	C741.537476,703.618225 748.026733,687.562866 753.004578,670.720093 
	C755.566345,662.052124 758.136963,653.384155 760.937561,644.792419 
	C761.316711,643.629211 763.008789,642.195435 764.187805,642.103455 
	C772.650879,641.443542 780.818726,640.016663 788.361511,635.761902 
	C796.494873,631.173889 803.197815,625.240356 807.157959,616.660583 
	C813.163696,603.648621 814.371094,589.339600 814.554565,575.615479 
	C814.886292,550.796143 815.801941,525.960571 813.473083,501.017120 
	C811.615845,481.125214 795.871826,457.888580 771.682434,456.984528 
	C765.760010,456.763184 763.487976,454.699707 762.116577,448.824341 
	C759.993591,439.729767 757.959900,430.613464 755.982910,421.485931 
	C752.572937,405.741852 747.140381,390.719635 739.228149,376.712616 
	C733.931946,367.336609 727.938904,358.346710 717.903687,352.251312 
	C712.362000,348.463501 707.232971,343.736511 701.193054,341.082458 
	C688.426453,335.472473 675.356140,330.407654 662.078003,326.157440 
	C652.705994,323.157562 642.815308,321.719849 633.104797,319.852081 
	C623.797974,318.061981 614.451843,316.427521 605.070862,315.090332 
	C599.365479,314.277069 593.541748,314.330536 587.805969,313.685730 
	C578.184265,312.604065 568.604065,311.149078 558.979370,310.098572 
	C553.155640,309.462952 547.280945,309.293457 541.429138,308.914520 
	C544.768311,307.551270 548.233948,307.055664 551.419800,305.831696 
	C552.914612,305.257446 553.870178,303.279480 555.097534,301.560028 
	C555.097534,301.560028 555.123901,301.182373 555.405396,300.877686 
	C555.171936,300.626221 554.938538,300.374725 554.516968,299.894470 
z"/>
<path fill="#262E48" opacity="1.000000" stroke="none" 
	d="
M555.070068,301.937622 
	C553.870178,303.279480 552.914612,305.257446 551.419800,305.831696 
	C548.233948,307.055664 544.768311,307.551270 541.429138,308.914520 
	C547.280945,309.293457 553.155640,309.462952 558.979370,310.098572 
	C568.604065,311.149078 578.184265,312.604065 587.805969,313.685730 
	C593.541748,314.330536 599.365479,314.277069 605.070862,315.090332 
	C614.451843,316.427521 623.797974,318.061981 633.104797,319.852081 
	C642.815308,321.719849 652.705994,323.157562 662.078003,326.157440 
	C675.356140,330.407654 688.426453,335.472473 701.193054,341.082458 
	C707.232971,343.736511 712.362000,348.463501 717.803406,352.790009 
	C717.576111,353.468018 717.449036,353.607361 717.015869,353.600647 
	C695.169189,337.456970 670.385254,329.621979 644.175354,323.922882 
	C649.150330,355.445984 648.071411,385.962555 640.710999,416.153564 
	C651.822510,418.177032 662.265503,420.230377 672.761719,421.960022 
	C698.027893,426.123505 713.772034,440.417694 721.052734,465.079742 
	C728.237976,489.418732 731.515503,514.219910 732.208069,539.438782 
	C733.163208,574.220886 730.465942,608.573975 721.314636,642.382935 
	C714.507812,667.530273 699.679871,682.759888 673.784729,688.341675 
	C639.631897,695.703552 605.127747,699.652527 570.366577,701.813232 
	C510.318115,705.545837 450.467010,703.285217 390.874817,694.952271 
	C373.235840,692.485779 355.657867,689.667725 338.911102,683.106628 
	C327.816895,678.760132 319.399414,671.585571 314.699585,660.636597 
	C311.429535,653.018677 308.184418,645.254883 306.203827,637.241028 
	C295.286682,593.068787 293.488922,548.344299 299.378387,503.298798 
	C301.584076,486.428772 305.204010,469.871094 311.900330,454.097565 
	C317.698486,440.439545 327.269745,430.860046 341.513092,426.385468 
	C348.166321,424.295349 354.939148,422.500000 361.759460,421.049286 
	C370.457916,419.199066 379.259277,417.832825 388.183624,416.227875 
	C380.580780,385.561035 380.125244,354.996216 384.158356,323.673553 
	C374.722839,326.278381 365.961945,328.338379 357.435547,331.117767 
	C331.511383,339.568329 307.497101,350.940674 292.480042,375.434631 
	C292.163300,375.146210 292.036652,375.030792 291.909973,374.915405 
	C294.264923,366.529846 300.235992,360.578644 306.427979,355.229187 
	C319.444397,343.983948 334.472839,336.035980 350.960480,331.073151 
	C363.085175,327.423615 375.241669,323.812744 387.541992,320.837952 
	C395.333588,318.953613 403.416687,318.277985 411.366516,317.043854 
	C421.570648,315.459747 431.772217,313.859375 441.974670,312.264557 
	C442.302826,312.213257 442.626068,312.114624 442.955475,312.089691 
	C451.999359,311.405304 461.045441,310.749054 470.087433,310.040741 
	C475.349701,309.628479 480.605591,309.134552 486.030823,307.687286 
	C484.461121,307.453217 482.793182,307.479279 481.342010,306.931305 
	C478.245667,305.762146 473.900177,305.090546 472.543976,302.768188 
	C470.393250,299.085388 473.201324,294.968414 476.630096,293.151581 
	C483.252655,289.642426 490.088135,286.048126 497.275696,284.228760 
	C504.518494,282.395447 512.296143,282.143646 519.838989,282.147461 
	C532.252991,282.153717 543.599731,285.749359 552.662903,294.751617 
	C553.688416,295.770264 554.021790,297.485626 554.237183,299.084229 
	C548.400208,293.341156 541.833557,289.202240 534.108215,287.080994 
	C522.335327,283.848389 510.272430,283.540253 498.491547,286.127472 
	C492.022247,287.548248 485.903931,291.032440 479.976410,294.232758 
	C477.504272,295.567474 475.940125,298.584076 472.995911,301.937622 
	C501.522308,301.937622 528.296204,301.937622 555.070068,301.937622 
M430.323883,411.938385 
	C498.212097,406.029480 565.998291,407.442047 633.559875,415.387054 
	C634.044495,414.021484 634.400024,413.264618 634.583313,412.468140 
	C641.120850,384.053009 642.067017,355.460083 637.737610,326.615112 
	C637.004089,321.728180 633.872314,321.686981 630.507996,321.069916 
	C596.992737,314.923035 563.158508,312.299103 529.125793,311.695953 
	C484.211182,310.899963 439.543915,313.188416 395.319702,321.682800 
	C392.359497,322.251373 391.216675,323.276123 390.725250,326.274689 
	C387.026184,348.845184 387.308563,371.408051 390.636749,393.958008 
	C391.691986,401.107758 393.329437,408.171600 394.707916,415.313293 
	C406.881439,414.148682 418.139740,413.071655 430.323883,411.938385 
M635.616455,681.067261 
	C648.339722,678.590515 661.052490,676.058716 673.788696,673.650391 
	C691.478027,670.305359 701.420227,659.176025 706.447876,642.400513 
	C713.374207,619.290100 716.607483,595.576782 717.779175,571.648621 
	C718.542419,556.062561 717.670654,540.369995 717.007935,524.747314 
	C716.215637,506.071625 712.854126,487.775299 707.781006,469.768463 
	C702.737671,451.867615 692.225647,440.411469 673.222412,436.645508 
	C650.351196,432.113037 627.432739,428.304718 604.158936,426.887848 
	C576.128662,425.181396 548.103271,423.217133 520.045532,422.205780 
	C503.938477,421.625214 487.769379,422.639496 471.632233,423.082397 
	C464.821991,423.269287 458.004822,423.644806 451.220917,424.264282 
	C435.177429,425.729370 419.076935,426.861023 403.139130,429.115143 
	C385.058563,431.672363 367.070953,435.010223 349.161560,438.600372 
	C340.614105,440.313782 333.222870,444.870209 328.895386,452.819916 
	C325.808380,458.490784 322.932922,464.407074 320.968353,470.536072 
	C312.552246,496.792480 310.993317,524.069946 310.218292,551.340942 
	C309.898499,562.594910 311.226990,573.905823 311.990173,585.178284 
	C313.297668,604.489563 316.836914,623.391846 322.060577,642.045227 
	C327.063416,659.910095 338.396545,670.240723 356.459320,674.218018 
	C383.143066,680.093689 410.056091,684.239685 437.301849,685.983826 
	C462.178558,687.576294 487.091797,689.748840 511.982452,689.668091 
	C540.213745,689.576599 568.456360,687.558716 596.656677,685.783936 
	C609.396729,684.982178 622.046326,682.742371 635.616455,681.067261 
z"/>
<path fill="#262E48" opacity="1.000000" stroke="none" 
	d="
M717.893860,353.119873 
	C727.938904,358.346710 733.931946,367.336609 739.228149,376.712616 
	C747.140381,390.719635 752.572937,405.741852 755.982910,421.485931 
	C757.959900,430.613464 759.993591,439.729767 762.116577,448.824341 
	C763.487976,454.699707 765.760010,456.763184 771.682434,456.984528 
	C795.871826,457.888580 811.615845,481.125214 813.473083,501.017120 
	C815.801941,525.960571 814.886292,550.796143 814.554565,575.615479 
	C814.371094,589.339600 813.163696,603.648621 807.157959,616.660583 
	C803.197815,625.240356 796.494873,631.173889 788.361511,635.761902 
	C780.818726,640.016663 772.650879,641.443542 764.187805,642.103455 
	C763.008789,642.195435 761.316711,643.629211 760.937561,644.792419 
	C758.136963,653.384155 755.566345,662.052124 753.004578,670.720093 
	C748.026733,687.562866 741.537476,703.618225 731.115845,718.023376 
	C723.843872,728.074890 713.760925,734.241577 703.302795,739.835388 
	C695.533508,743.991089 687.185608,747.151184 678.898743,750.224487 
	C672.743958,752.507141 666.233948,753.814087 659.963074,755.810059 
	C657.353271,756.640869 654.953857,758.132874 652.458801,759.324219 
	C652.510010,759.749084 652.561218,760.173950 652.612366,760.598816 
	C654.695251,760.598816 656.899475,760.166199 658.830261,760.708069 
	C661.255676,761.388794 664.815552,762.317139 665.534241,764.091309 
	C670.094177,775.346863 668.665710,786.362610 660.931396,795.667053 
	C655.264404,802.484314 646.865051,805.108154 638.272888,806.965881 
	C619.218201,811.085632 599.971802,813.295837 580.578186,815.379883 
	C547.546326,818.929565 514.540649,817.399048 481.524323,817.890625 
	C472.239105,818.028809 462.897980,817.743835 453.659882,816.851501 
	C442.540436,815.777344 431.499756,813.874512 420.432251,812.280029 
	C413.090057,811.222168 405.659576,810.517578 398.448456,808.868408 
	C386.826752,806.210510 374.957458,804.455566 366.401581,794.148193 
	C359.408661,785.723633 359.730225,770.659119 363.653442,763.731018 
	C364.657135,761.958557 368.116302,761.395569 370.567078,760.697144 
	C371.865906,760.326965 373.421875,760.859070 374.861755,760.983826 
	C375.009430,760.549072 375.157135,760.114258 375.304810,759.679504 
	C369.046234,757.088745 362.947571,753.968506 356.495056,752.020020 
	C343.969971,748.237610 331.578278,744.302979 320.515717,737.078308 
	C319.987885,736.733643 319.602600,736.170776 319.221191,735.207703 
	C319.409515,734.586670 319.527618,734.467468 319.967377,734.483643 
	C331.764801,739.435303 342.933044,745.260254 354.776367,748.870972 
	C385.363281,758.196045 417.084412,761.422241 448.815582,763.784058 
	C507.793274,768.173889 566.682190,767.114563 625.321777,758.928833 
	C647.922485,755.773987 670.268799,751.372253 691.681580,743.034851 
	C716.881287,733.223145 734.430908,715.894592 743.832886,690.537354 
	C746.894287,682.280701 749.712280,673.891113 751.955017,665.381348 
	C760.397461,633.347473 764.138306,600.611572 765.493713,567.597595 
	C767.496338,518.823059 765.555542,470.298737 753.889832,422.638672 
	C747.536560,396.682281 738.845520,371.751801 717.322021,353.746674 
	C717.449036,353.607361 717.576111,353.468018 717.893860,353.119873 
M365.534637,787.719604 
	C370.087982,797.705200 378.900055,801.604797 388.776398,803.985474 
	C424.451508,812.585144 460.845276,814.894409 497.326385,815.714050 
	C537.005310,816.605591 576.610474,814.809387 615.904114,808.863647 
	C626.402771,807.275024 636.933716,805.006287 647.006470,801.699402 
	C663.470886,796.294250 670.044067,778.437439 661.872681,763.628479 
	C563.542053,781.569153 465.227875,781.109436 366.673889,763.512268 
	C362.917542,771.085083 362.074768,778.904358 365.534637,787.719604 
M770.174316,627.720520 
	C769.724548,631.266846 769.274719,634.813171 768.785217,638.672424 
	C770.363037,638.591492 771.181152,638.635620 771.966919,638.496704 
	C792.890503,634.796204 805.334656,622.902161 808.847717,601.922546 
	C814.155090,570.227661 814.511963,538.286560 811.593750,506.345276 
	C810.905273,498.809723 809.312744,491.120148 806.669128,484.049957 
	C801.455322,470.106506 785.079895,458.993835 772.107117,459.787842 
	C772.249512,461.565704 772.358459,463.343140 772.539307,465.113220 
	C773.333984,472.891937 774.673340,480.655914 774.861572,488.448273 
	C775.487976,514.386108 776.542786,540.357666 775.807800,566.270142 
	C775.233887,586.502563 772.241638,606.666382 770.174316,627.720520 
z"/>
<path fill="#262E48" opacity="1.000000" stroke="none" 
	d="
M319.114197,734.884766 
	C316.434448,733.856201 313.592712,733.070557 311.483246,731.374268 
	C295.254028,718.324463 284.867767,701.369568 278.949005,681.563049 
	C275.848785,671.188660 273.146088,660.688599 269.769287,650.407715 
	C268.695679,647.138977 266.109283,644.334656 264.025116,641.455261 
	C263.556061,640.807251 262.273712,640.396973 261.397644,640.446106 
	C241.649063,641.554321 228.967285,631.238647 220.607712,614.654663 
	C218.451660,610.377319 217.687012,605.224854 217.083008,600.374817 
	C215.781769,589.925842 214.718307,579.429199 214.082657,568.920349 
	C213.411041,557.816772 213.125702,546.677063 213.093719,535.551880 
	C213.068954,526.925293 212.681015,518.104431 214.274323,509.715637 
	C216.499283,498.001282 215.273819,485.356171 223.949570,475.096954 
	C230.808121,466.986572 238.288406,460.527191 248.754303,457.996490 
	C249.875946,457.725311 250.989090,457.392151 252.073273,456.997406 
	C257.659668,454.963074 261.156464,456.592468 262.952515,462.832977 
	C263.798798,460.976135 264.653320,459.768524 264.903900,458.446381 
	C267.018677,447.288666 268.573059,436.002899 271.198517,424.970459 
	C273.427948,415.602234 276.616486,406.434448 279.839539,397.340637 
	C281.862946,391.631439 284.622162,386.168152 287.282806,380.707336 
	C288.268921,378.683472 289.916382,376.981842 291.586121,375.024323 
	C292.036652,375.030792 292.163300,375.146210 292.344818,375.759094 
	C284.860413,389.141754 279.662659,402.974976 275.905609,417.369110 
	C267.103760,451.091400 263.796051,485.532837 262.774017,520.242310 
	C261.306366,570.085815 264.863983,619.504639 277.125916,667.975830 
	C283.875275,694.655884 294.820251,719.054138 319.645721,734.348328 
	C319.527618,734.467468 319.409515,734.586670 319.114197,734.884766 
M251.957932,526.500854 
	C253.261276,504.169403 254.564636,481.837952 255.867310,459.518280 
	C239.083084,459.631165 222.345230,474.103973 219.164795,492.466431 
	C217.126678,504.233643 215.264313,516.236816 215.344467,528.120544 
	C215.490082,549.707642 216.819168,571.306946 218.309555,592.855835 
	C218.996765,602.791992 221.003799,612.698792 227.107956,621.122559 
	C235.130646,632.194031 246.192749,637.369690 260.189392,638.503662 
	C254.034668,601.261353 251.259644,564.502136 251.957932,526.500854 
z"/>
<path fill="#0369B2" opacity="1.000000" stroke="none" 
	d="
M555.083801,301.748840 
	C528.296204,301.937622 501.522308,301.937622 472.995911,301.937622 
	C475.940125,298.584076 477.504272,295.567474 479.976410,294.232758 
	C485.903931,291.032440 492.022247,287.548248 498.491547,286.127472 
	C510.272430,283.540253 522.335327,283.848389 534.108215,287.080994 
	C541.833557,289.202240 548.400208,293.341156 554.087524,299.461975 
	C554.376892,299.633423 554.516968,299.894470 554.657227,300.297119 
	C554.906189,300.860626 555.015015,301.021484 555.123901,301.182373 
	C555.123901,301.182373 555.097534,301.560028 555.083801,301.748840 
z"/>
<path fill="#262E48" opacity="1.000000" stroke="none" 
	d="
M555.264648,301.030029 
	C555.015015,301.021484 554.906189,300.860626 554.751221,300.411530 
	C554.938538,300.374725 555.171936,300.626221 555.264648,301.030029 
z"/>
<path fill="#F8F3E1" opacity="1.000000" stroke="none" 
	d="
M319.967377,734.483643 
	C294.820251,719.054138 283.875275,694.655884 277.125916,667.975830 
	C264.863983,619.504639 261.306366,570.085815 262.774017,520.242310 
	C263.796051,485.532837 267.103760,451.091400 275.905609,417.369110 
	C279.662659,402.974976 284.860413,389.141754 292.534851,375.932159 
	C307.497101,350.940674 331.511383,339.568329 357.435547,331.117767 
	C365.961945,328.338379 374.722839,326.278381 384.158356,323.673553 
	C380.125244,354.996216 380.580780,385.561035 388.183624,416.227875 
	C379.259277,417.832825 370.457916,419.199066 361.759460,421.049286 
	C354.939148,422.500000 348.166321,424.295349 341.513092,426.385468 
	C327.269745,430.860046 317.698486,440.439545 311.900330,454.097565 
	C305.204010,469.871094 301.584076,486.428772 299.378387,503.298798 
	C293.488922,548.344299 295.286682,593.068787 306.203827,637.241028 
	C308.184418,645.254883 311.429535,653.018677 314.699585,660.636597 
	C319.399414,671.585571 327.816895,678.760132 338.911102,683.106628 
	C355.657867,689.667725 373.235840,692.485779 390.874817,694.952271 
	C450.467010,703.285217 510.318115,705.545837 570.366577,701.813232 
	C605.127747,699.652527 639.631897,695.703552 673.784729,688.341675 
	C699.679871,682.759888 714.507812,667.530273 721.314636,642.382935 
	C730.465942,608.573975 733.163208,574.220886 732.208069,539.438782 
	C731.515503,514.219910 728.237976,489.418732 721.052734,465.079742 
	C713.772034,440.417694 698.027893,426.123505 672.761719,421.960022 
	C662.265503,420.230377 651.822510,418.177032 640.710999,416.153564 
	C648.071411,385.962555 649.150330,355.445984 644.175354,323.922882 
	C670.385254,329.621979 695.169189,337.456970 717.015869,353.600647 
	C738.845520,371.751801 747.536560,396.682281 753.889832,422.638672 
	C765.555542,470.298737 767.496338,518.823059 765.493713,567.597595 
	C764.138306,600.611572 760.397461,633.347473 751.955017,665.381348 
	C749.712280,673.891113 746.894287,682.280701 743.832886,690.537354 
	C734.430908,715.894592 716.881287,733.223145 691.681580,743.034851 
	C670.268799,751.372253 647.922485,755.773987 625.321777,758.928833 
	C566.682190,767.114563 507.793274,768.173889 448.815582,763.784058 
	C417.084412,761.422241 385.363281,758.196045 354.776367,748.870972 
	C342.933044,745.260254 331.764801,739.435303 319.967377,734.483643 
z"/>
<path fill="#F8F3E1" opacity="1.000000" stroke="none" 
	d="
M429.860962,411.966492 
	C418.139740,413.071655 406.881439,414.148682 394.707916,415.313293 
	C393.329437,408.171600 391.691986,401.107758 390.636749,393.958008 
	C387.308563,371.408051 387.026184,348.845184 390.725250,326.274689 
	C391.216675,323.276123 392.359497,322.251373 395.319702,321.682800 
	C439.543915,313.188416 484.211182,310.899963 529.125793,311.695953 
	C563.158508,312.299103 596.992737,314.923035 630.507996,321.069916 
	C633.872314,321.686981 637.004089,321.728180 637.737610,326.615112 
	C642.067017,355.460083 641.120850,384.053009 634.583313,412.468140 
	C634.400024,413.264618 634.044495,414.021484 633.559875,415.387054 
	C565.998291,407.442047 498.212097,406.029480 429.860962,411.966492 
z"/>
<path fill="#434C6C" opacity="1.000000" stroke="none" 
	d="
M635.176697,681.111145 
	C622.046326,682.742371 609.396729,684.982178 596.656677,685.783936 
	C568.456360,687.558716 540.213745,689.576599 511.982452,689.668091 
	C487.091797,689.748840 462.178558,687.576294 437.301849,685.983826 
	C410.056091,684.239685 383.143066,680.093689 356.459320,674.218018 
	C338.396545,670.240723 327.063416,659.910095 322.060577,642.045227 
	C316.836914,623.391846 313.297668,604.489563 311.990173,585.178284 
	C311.226990,573.905823 309.898499,562.594910 310.218292,551.340942 
	C310.993317,524.069946 312.552246,496.792480 320.968353,470.536072 
	C322.932922,464.407074 325.808380,458.490784 328.895386,452.819916 
	C333.222870,444.870209 340.614105,440.313782 349.161560,438.600372 
	C367.070953,435.010223 385.058563,431.672363 403.139130,429.115143 
	C419.076935,426.861023 435.177429,425.729370 451.220917,424.264282 
	C458.004822,423.644806 464.821991,423.269287 471.632233,423.082397 
	C487.769379,422.639496 503.938477,421.625214 520.045532,422.205780 
	C548.103271,423.217133 576.128662,425.181396 604.158936,426.887848 
	C627.432739,428.304718 650.351196,432.113037 673.222412,436.645508 
	C692.225647,440.411469 702.737671,451.867615 707.781006,469.768463 
	C712.854126,487.775299 716.215637,506.071625 717.007935,524.747314 
	C717.670654,540.369995 718.542419,556.062561 717.779175,571.648621 
	C716.607483,595.576782 713.374207,619.290100 706.447876,642.400513 
	C701.420227,659.176025 691.478027,670.305359 673.788696,673.650391 
	C661.052490,676.058716 648.339722,678.590515 635.176697,681.111145 
M711.005676,506.538879 
	C708.212463,493.885529 705.970581,481.076630 702.458679,468.625977 
	C699.420959,457.856354 694.263245,448.060181 682.309692,444.308167 
	C678.657043,443.161682 675.074341,441.616760 671.335571,440.952057 
	C656.944214,438.393677 642.576538,435.412567 628.063599,433.890778 
	C601.639832,431.120056 575.153442,428.177521 548.628967,427.341095 
	C518.867859,426.402649 489.032806,427.568390 459.236023,428.137543 
	C449.281036,428.327728 439.308197,429.176056 429.407990,430.294159 
	C411.580109,432.307495 393.737793,434.354492 376.025970,437.170532 
	C366.052429,438.756256 356.188690,441.459351 346.524200,444.460052 
	C332.824707,448.713531 328.267242,460.745300 324.671967,472.864685 
	C318.637024,493.208008 315.304138,514.129883 315.180237,535.315247 
	C315.064636,555.085083 315.624329,574.922913 317.240784,594.619629 
	C318.667542,612.005493 321.901764,629.247559 328.079834,645.749756 
	C331.681305,655.369690 337.297729,663.131897 347.440826,666.583557 
	C352.319031,668.243591 357.240204,670.030640 362.290009,670.888428 
	C381.614594,674.171021 400.917206,677.859741 420.382996,679.962280 
	C443.158508,682.422302 466.073090,684.160889 488.967743,684.829834 
	C532.073059,686.089233 575.186462,685.195679 617.939941,678.904297 
	C638.297729,675.908569 658.497070,671.705627 678.641052,667.447876 
	C687.470215,665.581726 694.541992,660.311707 697.768250,651.421570 
	C701.108704,642.217285 705.032471,633.024475 706.749268,623.475708 
	C709.682556,607.160461 711.359192,590.599121 713.077515,574.090576 
	C715.396912,551.807373 713.953918,529.579590 711.005676,506.538879 
z"/>
<path fill="#046AB2" opacity="1.000000" stroke="none" 
	d="
M365.376282,787.365906 
	C362.074768,778.904358 362.917542,771.085083 366.673889,763.512268 
	C465.227875,781.109436 563.542053,781.569153 661.872681,763.628479 
	C670.044067,778.437439 663.470886,796.294250 647.006470,801.699402 
	C636.933716,805.006287 626.402771,807.275024 615.904114,808.863647 
	C576.610474,814.809387 537.005310,816.605591 497.326385,815.714050 
	C460.845276,814.894409 424.451508,812.585144 388.776398,803.985474 
	C378.900055,801.604797 370.087982,797.705200 365.376282,787.365906 
z"/>
<path fill="#036BB4" opacity="1.000000" stroke="none" 
	d="
M770.249146,627.290649 
	C772.241638,606.666382 775.233887,586.502563 775.807800,566.270142 
	C776.542786,540.357666 775.487976,514.386108 774.861572,488.448273 
	C774.673340,480.655914 773.333984,472.891937 772.539307,465.113220 
	C772.358459,463.343140 772.249512,461.565704 772.107117,459.787842 
	C785.079895,458.993835 801.455322,470.106506 806.669128,484.049957 
	C809.312744,491.120148 810.905273,498.809723 811.593750,506.345276 
	C814.511963,538.286560 814.155090,570.227661 808.847717,601.922546 
	C805.334656,622.902161 792.890503,634.796204 771.966919,638.496704 
	C771.181152,638.635620 770.363037,638.591492 768.785217,638.672424 
	C769.274719,634.813171 769.724548,631.266846 770.249146,627.290649 
z"/>
<path fill="#036AB1" opacity="1.000000" stroke="none" 
	d="
M251.953217,527.000732 
	C251.259644,564.502136 254.034668,601.261353 260.189392,638.503662 
	C246.192749,637.369690 235.130646,632.194031 227.107956,621.122559 
	C221.003799,612.698792 218.996765,602.791992 218.309555,592.855835 
	C216.819168,571.306946 215.490082,549.707642 215.344467,528.120544 
	C215.264313,516.236816 217.126678,504.233643 219.164795,492.466431 
	C222.345230,474.103973 239.083084,459.631165 255.867310,459.518280 
	C254.564636,481.837952 253.261276,504.169403 251.953217,527.000732 
z"/>
<path fill="#222A44" opacity="1.000000" stroke="none" 
	d="
M711.030640,506.981506 
	C713.953918,529.579590 715.396912,551.807373 713.077515,574.090576 
	C711.359192,590.599121 709.682556,607.160461 706.749268,623.475708 
	C705.032471,633.024475 701.108704,642.217285 697.768250,651.421570 
	C694.541992,660.311707 687.470215,665.581726 678.641052,667.447876 
	C658.497070,671.705627 638.297729,675.908569 617.939941,678.904297 
	C575.186462,685.195679 532.073059,686.089233 488.967743,684.829834 
	C466.073090,684.160889 443.158508,682.422302 420.382996,679.962280 
	C400.917206,677.859741 381.614594,674.171021 362.290009,670.888428 
	C357.240204,670.030640 352.319031,668.243591 347.440826,666.583557 
	C337.297729,663.131897 331.681305,655.369690 328.079834,645.749756 
	C321.901764,629.247559 318.667542,612.005493 317.240784,594.619629 
	C315.624329,574.922913 315.064636,555.085083 315.180237,535.315247 
	C315.304138,514.129883 318.637024,493.208008 324.671967,472.864685 
	C328.267242,460.745300 332.824707,448.713531 346.524200,444.460052 
	C356.188690,441.459351 366.052429,438.756256 376.025970,437.170532 
	C393.737793,434.354492 411.580109,432.307495 429.407990,430.294159 
	C439.308197,429.176056 449.281036,428.327728 459.236023,428.137543 
	C489.032806,427.568390 518.867859,426.402649 548.628967,427.341095 
	C575.153442,428.177521 601.639832,431.120056 628.063599,433.890778 
	C642.576538,435.412567 656.944214,438.393677 671.335571,440.952057 
	C675.074341,441.616760 678.657043,443.161682 682.309692,444.308167 
	C694.263245,448.060181 699.420959,457.856354 702.458679,468.625977 
	C705.970581,481.076630 708.212463,493.885529 711.030640,506.981506 
M394.667419,579.956604 
	C411.600647,584.116272 428.664948,584.306030 445.611572,580.579529 
	C451.491882,579.286438 457.497040,576.933533 462.502808,573.634705 
	C472.485626,567.055908 472.352325,556.758606 462.496368,550.046509 
	C458.592651,547.388062 454.002930,545.382812 449.438141,544.114746 
	C434.978516,540.098083 420.188080,540.056946 405.371155,541.656433 
	C396.374146,542.627686 387.576660,544.429138 380.043793,549.869934 
	C370.571045,556.711975 370.540466,567.251038 380.309509,573.679871 
	C384.398499,576.370667 389.329620,577.781799 394.667419,579.956604 
M641.119995,577.760498 
	C643.617798,576.440857 646.289368,575.368591 648.582947,573.758118 
	C657.989868,567.153015 658.246704,556.937134 648.843872,550.269531 
	C644.987854,547.535278 640.417969,545.350281 635.848694,544.158997 
	C616.789062,539.190186 597.545410,539.248413 578.546021,544.332397 
	C573.411194,545.706421 568.335632,548.575745 564.141113,551.903564 
	C557.143127,557.455566 557.102661,565.942871 563.965088,571.708130 
	C567.682434,574.831177 572.301086,577.442505 576.947021,578.802734 
	C598.100464,584.996338 619.321167,584.814453 641.119995,577.760498 
M346.805847,479.334625 
	C344.786041,483.654053 342.231232,487.814117 340.884857,492.334167 
	C339.282257,497.714386 341.277344,502.037933 345.216614,503.861694 
	C349.983276,506.068481 354.055481,504.499817 357.338715,500.906158 
	C363.606476,494.045837 369.790283,487.102539 375.814209,480.027893 
	C379.836823,475.303680 380.273407,469.564545 377.337006,465.846069 
	C374.551300,462.318420 368.871704,461.180145 363.720825,464.673767 
	C357.771240,468.709167 352.669067,473.993896 346.805847,479.334625 
M337.656860,517.430969 
	C338.253876,519.967102 338.207062,523.023987 339.683167,524.849060 
	C340.605957,525.989990 344.316223,526.104187 345.882599,525.174500 
	C347.691315,524.100891 349.680145,521.236938 349.465363,519.398743 
	C349.218567,517.287354 346.882050,514.182251 345.014282,513.828918 
	C342.937958,513.436035 340.366730,515.658752 337.656860,517.430969 
z"/>
<path fill="#3DEFD5" opacity="1.000000" stroke="none" 
	d="
M394.272644,579.865723 
	C389.329620,577.781799 384.398499,576.370667 380.309509,573.679871 
	C370.540466,567.251038 370.571045,556.711975 380.043793,549.869934 
	C387.576660,544.429138 396.374146,542.627686 405.371155,541.656433 
	C420.188080,540.056946 434.978516,540.098083 449.438141,544.114746 
	C454.002930,545.382812 458.592651,547.388062 462.496368,550.046509 
	C472.352325,556.758606 472.485626,567.055908 462.502808,573.634705 
	C457.497040,576.933533 451.491882,579.286438 445.611572,580.579529 
	C428.664948,584.306030 411.600647,584.116272 394.272644,579.865723 
z"/>
<path fill="#3CEDD7" opacity="1.000000" stroke="none" 
	d="
M640.752563,577.884033 
	C619.321167,584.814453 598.100464,584.996338 576.947021,578.802734 
	C572.301086,577.442505 567.682434,574.831177 563.965088,571.708130 
	C557.102661,565.942871 557.143127,557.455566 564.141113,551.903564 
	C568.335632,548.575745 573.411194,545.706421 578.546021,544.332397 
	C597.545410,539.248413 616.789062,539.190186 635.848694,544.158997 
	C640.417969,545.350281 644.987854,547.535278 648.843872,550.269531 
	C658.246704,556.937134 657.989868,567.153015 648.582947,573.758118 
	C646.289368,575.368591 643.617798,576.440857 640.752563,577.884033 
z"/>
<path fill="#3CEBD2" opacity="1.000000" stroke="none" 
	d="
M347.002380,479.035400 
	C352.669067,473.993896 357.771240,468.709167 363.720825,464.673767 
	C368.871704,461.180145 374.551300,462.318420 377.337006,465.846069 
	C380.273407,469.564545 379.836823,475.303680 375.814209,480.027893 
	C369.790283,487.102539 363.606476,494.045837 357.338715,500.906158 
	C354.055481,504.499817 349.983276,506.068481 345.216614,503.861694 
	C341.277344,502.037933 339.282257,497.714386 340.884857,492.334167 
	C342.231232,487.814117 344.786041,483.654053 347.002380,479.035400 
z"/>
<path fill="#3BEAD4" opacity="1.000000" stroke="none" 
	d="
M337.833923,517.086914 
	C340.366730,515.658752 342.937958,513.436035 345.014282,513.828918 
	C346.882050,514.182251 349.218567,517.287354 349.465363,519.398743 
	C349.680145,521.236938 347.691315,524.100891 345.882599,525.174500 
	C344.316223,526.104187 340.605957,525.989990 339.683167,524.849060 
	C338.207062,523.023987 338.253876,519.967102 337.833923,517.086914 
z"/>
</svg>